<svg width="20" height="24" viewBox="0 0 20 24" fill="none" xmlns="http://www.w3.org/2000/svg">
<path d="M9.61904 9.78806C9.70707 9.91087 9.84887 9.98367 9.99999 9.98367C10.1511 9.98367 10.2929 9.91083 10.3809 9.78806L14.8142 3.60431C14.9166 3.46148 14.9305 3.27338 14.8502 3.11705C14.77 2.96072 14.609 2.86242 14.4332 2.86242H12.2168V0.46875C12.2168 0.209859 12.0069 0 11.748 0H8.25198C7.99314 0 7.78323 0.209859 7.78323 0.46875V2.86238H5.56674C5.39101 2.86238 5.23004 2.96067 5.14974 3.117C5.06945 3.27333 5.08337 3.46144 5.18579 3.60427L9.61904 9.78806ZM8.25198 3.79988C8.51082 3.79988 8.72073 3.59002 8.72073 3.33113V0.9375H11.2793V3.33113C11.2793 3.59002 11.4892 3.79988 11.748 3.79988H13.5204L9.99999 8.71041L6.47954 3.79988H8.25198Z" fill="#9DBA96"/>
<path d="M19.6927 15.5055L18.2812 11.5309C18.2147 11.3439 18.0378 11.219 17.8394 11.219H2.16066C1.96228 11.219 1.78533 11.3439 1.71891 11.5309L0.307407 15.5055C0.256454 15.6491 0.278392 15.8083 0.366236 15.9327C0.454079 16.0572 0.596861 16.1311 0.749157 16.1311H1.63144V23.5312C1.63144 23.7901 1.84135 23.9999 2.10019 23.9999H17.7786C18.0375 23.9999 18.2474 23.7901 18.2474 23.5312V16.1312H19.251C19.4033 16.1312 19.546 16.0572 19.6339 15.9328C19.7217 15.8084 19.7436 15.6491 19.6927 15.5055ZM2.4916 12.1565H13.5878L12.5092 15.1937H1.41305L2.4916 12.1565ZM2.56894 16.1312H12.8402C13.0386 16.1312 13.2155 16.0062 13.2819 15.8193L13.7829 14.4085V23.0624H12.3008V19.4218C12.3008 19.1629 12.0908 18.953 11.832 18.953H4.56549C4.30664 18.953 4.09674 19.1629 4.09674 19.4218V23.0624H2.56894V16.1312ZM5.03424 23.0624V19.8905H11.3633V23.0624H5.03424ZM17.3098 23.0624H14.7204V14.5008L15.1887 15.8193C15.2551 16.0062 15.432 16.1312 15.6304 16.1312H17.3098V23.0624ZM15.9614 15.1937L14.8828 12.1565H17.5085L18.5871 15.1937H15.9614Z" fill="#9DBA96"/>
<path d="M9.41619 21.0078H6.83108C6.57223 21.0078 6.36233 21.2177 6.36233 21.4766C6.36233 21.7355 6.57223 21.9453 6.83108 21.9453H9.41619C9.67503 21.9453 9.88494 21.7355 9.88494 21.4766C9.88494 21.2177 9.67503 21.0078 9.41619 21.0078Z" fill="#9DBA96"/>
</svg>
