<svg width="24" height="24" viewBox="0 0 24 24" fill="none" xmlns="http://www.w3.org/2000/svg">
<g clip-path="url(#clip0)">
<path d="M20.1853 14C19.7043 14.0001 19.243 14.1912 18.9029 14.5312L14.2345 19.2H11.2001V18.8C11.1988 17.696 10.3041 16.8013 9.20007 16.8H8.80007C8.35822 16.8 8.00007 17.1582 8.00007 17.6V18C8.00162 18.4342 8.14582 18.8558 8.41047 19.2H5.20007V24H18.8001V19.7656L21.4685 17.0968C21.8099 16.7574 22.0014 16.2955 22.0001 15.814C21.9999 14.812 21.1874 13.9998 20.1853 14ZM8.80007 17.6H9.20007C9.86282 17.6 10.4001 18.1373 10.4001 18.8V19.2H10.0001C9.33732 19.2 8.80007 18.6628 8.80007 18V17.6ZM18.0001 23.2H6.00007V20H18.0001V23.2ZM20.9255 16.5086C20.9181 16.5162 20.9105 16.5238 20.9029 16.5312L18.2345 19.2H15.3657L19.4685 15.0968C19.8583 14.6945 20.5005 14.6844 20.9029 15.0742C21.3052 15.464 21.3154 16.1062 20.9255 16.5086Z" fill="#9DBA96"/>
<path d="M20.4 15.6001H19.6V16.4001H20.4V15.6001Z" fill="#9DBA96"/>
<path d="M18.8 17.2H18V18H18.8V17.2Z" fill="#9DBA96"/>
<path d="M5.48324 15.3173C5.30149 15.1366 5.19954 14.8908 5.20004 14.6345C5.19939 14.0635 4.73664 13.6007 4.16564 13.6001H3.83444C3.26344 13.6007 2.80069 14.0635 2.80004 14.6345C2.80054 14.8908 2.69859 15.1366 2.51684 15.3173C2.18479 15.6477 1.99874 16.0972 2.00004 16.5657V16.6345C2.00114 17.6091 2.79099 18.399 3.76564 18.4001H4.23444C5.20909 18.399 5.99894 17.6091 6.00004 16.6345V16.5657C6.00134 16.0972 5.81529 15.6477 5.48324 15.3173ZM5.20004 16.6345C5.19939 17.1675 4.76744 17.5994 4.23444 17.6001H3.76564C3.23264 17.5994 2.80069 17.1675 2.80004 16.6345V16.5657C2.79954 16.3094 2.90149 16.0636 3.08324 15.8829C3.41529 15.5524 3.60134 15.1029 3.60004 14.6345C3.60004 14.505 3.70499 14.4001 3.83444 14.4001H4.16564C4.29509 14.4001 4.40004 14.505 4.40004 14.6345C4.39874 15.1029 4.58479 15.5524 4.91684 15.8829C5.09859 16.0636 5.20054 16.3094 5.20004 16.5657V16.6345Z" fill="#9DBA96"/>
<path d="M9.18005 10.4L9.76605 9.81398C10.364 9.21603 10.3641 8.24653 9.7662 7.64853C9.4789 7.36118 9.08915 7.19983 8.68285 7.19998H8.57405C8.3827 6.26943 7.5641 5.60118 6.61405 5.59998H6.38005L6.29725 5.51718C5.5888 4.80873 4.4401 4.80873 3.73165 5.51718C3.0232 6.22563 3.0232 7.37433 3.73165 8.08278L3.81445 8.16558V8.39998C3.81565 9.35003 4.4839 10.1686 5.41445 10.36V10.4688C5.41435 11.3144 6.09985 12 6.9455 12.0001C7.3517 12.0002 7.74125 11.8388 8.02845 11.5516L8.61445 10.9656L9.93165 12.2828L10.4972 11.7172L9.18005 10.4ZM8.61405 9.83438L7.29685 8.51718L6.73125 9.08278L8.04885 10.4L7.46285 10.986C7.17685 11.2714 6.71365 11.2709 6.4282 10.9849C6.29145 10.8479 6.2146 10.6623 6.21445 10.4688V9.59998H5.81445C5.1517 9.59998 4.61445 9.06273 4.61445 8.39998V7.83438L4.29725 7.51718C3.86605 7.15883 3.75415 6.58233 4.1125 6.15113C4.15235 6.10318 4.1965 6.05903 4.29725 6.08278C4.69345 5.68698 5.33545 5.68698 5.73165 6.08278L6.04885 6.39998H6.61445C7.2772 6.39998 7.81445 6.93723 7.81445 7.59998V7.99998H8.68285C9.0867 7.99978 9.4142 8.32703 9.4144 8.73083C9.4145 8.92493 9.3374 9.11113 9.20005 9.24838L8.61405 9.83438Z" fill="#9DBA96"/>
<path d="M15.8001 12.4H15.6001C15.6001 11.6268 14.9733 11 14.2001 11C13.4269 11 12.8001 11.6268 12.8001 12.4H12.6001C11.8269 12.4 11.2001 13.0268 11.2001 13.8C11.2001 14.5732 11.8269 15.2 12.6001 15.2H12.8001V16.8H15.6001V15.2H15.8001C16.5733 15.2 17.2001 14.5732 17.2001 13.8C17.2001 13.0268 16.5733 12.4 15.8001 12.4ZM14.8001 16H13.6001V15.2H14.8001V16ZM15.8001 14.4H12.6001C12.2687 14.4 12.0001 14.1313 12.0001 13.8C12.0001 13.4686 12.2687 13.2 12.6001 13.2H13.6001V12.4C13.6001 12.0686 13.8687 11.8 14.2001 11.8C14.5314 11.8 14.8001 12.0686 14.8001 12.4V13.2H15.8001C16.1314 13.2 16.4001 13.4686 16.4001 13.8C16.4001 14.1313 16.1314 14.4 15.8001 14.4Z" fill="#9DBA96"/>
<path d="M8.80006 12.8H8.40006C7.29606 12.8013 6.40136 13.696 6.40006 14.8V15.2C6.40006 15.6419 6.75821 16 7.20006 16H7.60006C8.70406 15.9987 9.59876 15.104 9.60006 14V13.6C9.60006 13.1582 9.24191 12.8 8.80006 12.8ZM8.80006 14C8.80006 14.6628 8.26281 15.2 7.60006 15.2H7.20006V14.8C7.20006 14.1373 7.73731 13.6 8.40006 13.6H8.80006V14Z" fill="#9DBA96"/>
<path d="M20.3999 7.6001C19.5191 7.60215 18.6901 8.01665 18.1599 8.7201C17.7975 9.2053 17.6011 9.79445 17.5999 10.4001V11.2001C17.602 11.7068 17.9222 12.1576 18.3999 12.3265V13.2001H19.1999V12.3265C19.6777 12.1576 19.9978 11.7068 19.9999 11.2001V10.7201C19.9996 10.3288 20.1155 9.9463 20.3327 9.6209C20.6373 9.16475 20.7999 8.6286 20.7999 8.0801V7.6001H20.3999ZM19.6671 9.1781C19.3623 9.63455 19.1997 10.1712 19.1999 10.7201V11.2001C19.1999 11.421 19.0208 11.6001 18.7999 11.6001C18.579 11.6001 18.3999 11.421 18.3999 11.2001V10.4001C18.4002 9.46315 19.0509 8.652 19.9655 8.4485C19.9161 8.7093 19.8146 8.9574 19.6671 9.1781Z" fill="#9DBA96"/>
<path d="M12.7264 0.8C12.5575 0.32225 12.1067 0.0021 11.6 0H10.8C9.25365 0 8.00005 1.2536 8.00005 2.8V3.2H8.48005C9.02895 3.2003 9.5656 3.0377 10.022 2.7328C10.3471 2.51575 10.7292 2.3999 11.12 2.4H11.6C12.1067 2.3979 12.5575 2.07775 12.7264 1.6H13.6V0.8H12.7264ZM11.6 1.6H11.12C10.5708 1.59955 10.0339 1.76215 9.57725 2.0672C9.3564 2.21465 9.10815 2.3161 8.84725 2.3656C8.9519 1.90005 9.21875 1.4869 9.60005 1.2C9.94665 0.9412 10.3674 0.8009 10.8 0.8H11.6C11.8209 0.8 12 0.9791 12 1.2C12 1.4209 11.8209 1.6 11.6 1.6Z" fill="#9DBA96"/>
<path d="M14 3.2467V2.3999H13.2V3.2467C12.2916 3.45185 11.6905 4.31705 11.8152 5.2399L12.298 8.8611C12.3933 9.5803 13.0537 10.086 13.7729 9.9906C14.3613 9.91255 14.8244 9.44955 14.9024 8.8611L15.3848 5.2399C15.5094 4.31705 14.9084 3.45185 14 3.2467ZM14.592 5.1331L14.4232 6.3999H13.6V7.1999H14.3164L14.1092 8.7543C14.0721 9.0355 13.8141 9.23345 13.5329 9.1964C13.3024 9.16605 13.1211 8.9847 13.0908 8.7543L12.6704 5.5999H13.6V4.7999H12.6252C12.7358 4.25995 13.2633 3.91195 13.8032 4.0226C14.3172 4.1279 14.6618 4.61315 14.592 5.1331Z" fill="#9DBA96"/>
<path d="M17.6 5.6001H17.2C16.5372 5.6001 16 6.13735 16 6.8001C16 7.46285 16.5372 8.0001 17.2 8.0001H17.6C18.2627 8.0001 18.8 7.46285 18.8 6.8001C18.8 6.13735 18.2627 5.6001 17.6 5.6001ZM17.6 7.2001H17.2C16.9791 7.2001 16.8 7.021 16.8 6.8001C16.8 6.5792 16.9791 6.4001 17.2 6.4001H17.6C17.8209 6.4001 18 6.5792 18 6.8001C18 7.021 17.8209 7.2001 17.6 7.2001Z" fill="#9DBA96"/>
<path d="M9.99997 4H9.59997C8.93722 4 8.39997 4.53725 8.39997 5.2C8.39997 5.86275 8.93722 6.4 9.59997 6.4H9.99997C10.6627 6.4 11.2 5.86275 11.2 5.2C11.2 4.53725 10.6627 4 9.99997 4ZM9.99997 5.6H9.59997C9.37907 5.6 9.19997 5.4209 9.19997 5.2C9.19997 4.9791 9.37907 4.8 9.59997 4.8H9.99997C10.2209 4.8 10.4 4.9791 10.4 5.2C10.4 5.4209 10.2209 5.6 9.99997 5.6Z" fill="#9DBA96"/>
</g>
<defs>
<clipPath id="clip0">
<rect width="24" height="24" fill="white"/>
</clipPath>
</defs>
</svg>
