<?xml version="1.0" encoding="utf-8"?><svg version="1.1" id="Layer_1" xmlns="http://www.w3.org/2000/svg" xmlns:xlink="http://www.w3.org/1999/xlink" x="0px" y="0px" viewBox="0 0 122.88 60.73" style="enable-background:new 0 0 122.88 60.73" xml:space="preserve"><style type="text/css">.st0{fill:#3B5337;fill-rule:evenodd;clip-rule:evenodd;stroke:#518051;stroke-width:0.216;stroke-miterlimit:2.6131;}</style><g><path  class="st0" d="M75.99,60.68c-0.15-0.56-0.31-1.06-0.5-1.5c-1.12-2.65-3.93-3.86-6.68-5.05c-0.47-0.2-0.93-0.4-1.42-0.62 c-0.06,0.08-0.13,0.16-0.19,0.23c-0.38,0.46-0.82,0.88-1.31,1.23c-1.37,0.99-3.13,1.56-4.95,1.65c-1.81,0.09-3.69-0.3-5.29-1.22 c-0.8-0.46-1.53-1.04-2.15-1.77c-0.44,0.21-0.9,0.42-1.36,0.63c-2.65,1.21-5.63,2.57-6.72,4.84c-0.23,0.48-0.42,1.01-0.56,1.58 h-1.57l0.03-0.15c0.17-0.75,0.41-1.45,0.72-2.1c1.33-2.77,4.58-4.26,7.46-5.57c0.64-0.29,1.26-0.57,1.82-0.85 c0.38-0.5,0.69-1.04,0.93-1.61c0.21-0.49,0.36-1.01,0.46-1.56c-0.58-0.35-1.14-0.75-1.67-1.22c-2.16-1.92-3.67-3.48-4.65-5.29 c-0.99-1.84-1.4-3.88-1.35-6.71l0.16-8.2c0-0.09,0.02-0.17,0.05-0.25l-1.91-0.6c-0.28-6.04,3.22-9.66,7.56-11.4 c1.58-0.63-1.06-4.09,2.57-2.76c4.85,1.77,15.62,4.19,18.16,7.24c2.07,2.47,2.15,3.82,2.11,7.05c-0.01,1.05-0.18,1.97-0.66,2.31 c-0.22,0.16-0.49,0.22-0.8,0.19v7.01c0,3.89-1.39,7.13-3.52,9.54c-1.2,1.36-2.64,2.44-4.2,3.22c0.09,0.5,0.22,0.98,0.39,1.43 c0.2,0.54,0.45,1.06,0.75,1.55c0.53,0.24,1.13,0.5,1.73,0.76c3.03,1.31,6.12,2.64,7.49,5.86c0.26,0.62,0.49,1.31,0.67,2.1H75.99 L75.99,60.68z M57.59,50.04c-0.49-0.13-0.98-0.29-1.45-0.49c-0.12,0.5-0.27,0.98-0.47,1.44c-0.24,0.58-0.55,1.14-0.92,1.66 c0.41,0.45,0.87,0.84,1.37,1.17c1.36,0.88,2.99,1.29,4.6,1.25c1.6-0.04,3.16-0.53,4.38-1.45c0.32-0.25,0.63-0.52,0.89-0.83 c0.08-0.1,0.16-0.2,0.23-0.3c-0.28-0.5-0.52-1.02-0.72-1.57c-0.15-0.42-0.28-0.85-0.38-1.3c-1.56,0.56-3.14,0.84-4.7,0.81 C59.46,50.42,58.51,50.29,57.59,50.04L57.59,50.04z M55.97,47.77c0.51,0.27,1.03,0.49,1.56,0.66l0.02,0.01 c0.98,0.3,2,0.45,3.03,0.45c1.65,0,3.31-0.37,4.86-1.08c1.55-0.71,2.99-1.74,4.16-3.07c1.9-2.14,3.13-5.04,3.13-8.52v-7.1h0 c-0.02-0.49-0.09-0.94-0.22-1.35c-0.13-0.39-0.31-0.74-0.56-1.03c-0.94-1.11-1.84-1.06-3.11-1c-0.11,0.01-0.23,0.01-0.39,0.02 c-5.04,0.22-8.34,0.22-11.02-0.02c-2.47-0.22-4.41-0.62-6.67-1.22c-0.21,0.5-0.46,0.99-0.75,1.46c-0.37,0.61-0.8,1.19-1.29,1.74 l-0.15,7.91c-0.05,2.55,0.31,4.36,1.17,5.96c0.87,1.62,2.28,3.07,4.31,4.87c0.54,0.47,1.11,0.88,1.71,1.21 C55.84,47.7,55.91,47.73,55.97,47.77L55.97,47.77z M57.21,43.08c-0.35-0.23-0.46-0.71-0.23-1.06c0.23-0.35,0.71-0.46,1.06-0.23 c0.87,0.57,1.71,0.88,2.51,0.89c0.77,0.01,1.54-0.26,2.29-0.85c0.34-0.26,0.82-0.2,1.08,0.14c0.26,0.34,0.2,0.82-0.14,1.08 c-1.04,0.81-2.13,1.18-3.26,1.17C59.44,44.2,58.33,43.81,57.21,43.08L57.21,43.08z M54.35,33.47c0.92,0,1.66,0.74,1.66,1.66 c0,0.92-0.74,1.66-1.66,1.66c-0.92,0-1.66-0.74-1.66-1.66C52.69,34.21,53.43,33.47,54.35,33.47L54.35,33.47z M66.86,33.47 c0.92,0,1.66,0.74,1.66,1.66c0,0.92-0.74,1.66-1.66,1.66c-0.92,0-1.66-0.74-1.66-1.66C65.2,34.21,65.94,33.47,66.86,33.47 L66.86,33.47z M40.27,39.66L40.27,39.66L40.27,39.66z M13.69,23.73c1.14,0,2.06,0.92,2.06,2.06c0,1.14-0.92,2.06-2.06,2.06 s-2.06-0.92-2.06-2.06C11.62,24.65,12.55,23.73,13.69,23.73L13.69,23.73z M16.21,36.86c-0.44-0.31-0.55-0.91-0.24-1.35 c0.31-0.44,0.91-0.55,1.36-0.24c0.99,0.69,1.96,1.03,2.91,1.03c0.95,0,1.93-0.35,2.92-1.03c0.44-0.3,1.05-0.19,1.35,0.25 c0.3,0.44,0.19,1.05-0.25,1.35c-1.32,0.91-2.66,1.37-4.02,1.37C18.87,38.24,17.53,37.78,16.21,36.86L16.21,36.86z M27.22,23.73 c1.14,0,2.06,0.92,2.06,2.06c0,1.14-0.92,2.06-2.06,2.06s-2.06-0.92-2.06-2.06C25.16,24.65,26.08,23.73,27.22,23.73L27.22,23.73z M0.86,60.73c1.65-5.95,3.83-7.75,8.26-11.41c0.67-0.55,1.4-1.15,2.09-1.74c0.01-0.01,0.03-0.02,0.04-0.03 c0.16-0.2,0.26-0.34,0.36-0.46c0.52-0.66,0.95-1.2,1.29-1.93c-2.18-1.17-4.22-2.92-5.95-5.29c-1.3,0.33-2.41,0.62-3.33,0.86 c-1.06,0.28-1.89,0.5-2.44,0.62c-0.08,0.02-0.15,0.03-0.24,0.02C0.41,41.36-0.01,40.91,0,40.37L0.56,16.9c0-0.04,0-0.07,0-0.11 c0.14-1.39,0.45-2.73,0.92-4.03c0.47-1.29,1.1-2.54,1.86-3.73c2.06-3.24,4.63-5.55,7.65-7.02c3-1.46,6.44-2.1,10.25-2 c3.28,0.08,6.46,0.89,9.28,2.51c2.64,1.51,4.97,3.73,6.79,6.71c0.67,1.1,1.25,2.25,1.74,3.46c0.48,1.19,0.87,2.42,1.18,3.7 c0.03,0.09,0.04,0.18,0.04,0.28l0,22.99c0,0.31-0.14,0.61-0.41,0.8c-0.44,0.31-1.05,0.2-1.35-0.24c-0.44-0.63-1.01-1.15-1.68-1.59 c-0.51-0.33-1.08-0.61-1.71-0.86c-2.02,3.28-4.65,5.73-7.57,7.27c0.26,0.76,0.63,1.33,1.08,2.05l0.2,0.31 c1.54,0.69,3.03,1.58,4.45,2.89c1.47,1.35,2.83,3.14,4.04,5.62c0.77,1.58,1.36,3.2,1.85,4.83h-2.04c-0.43-1.36-0.93-2.69-1.56-3.98 c-1.09-2.24-2.31-3.84-3.6-5.04c-1.08-1-2.23-1.72-3.41-2.3c-0.74,0.93-1.61,1.7-2.56,2.32c-1.81,1.19-3.92,1.8-6.03,1.8 c-2.11,0.01-4.22-0.6-6.02-1.85c-0.35-0.24-0.68-0.5-1-0.79c-0.43-0.36-0.84-0.77-1.23-1.2c-0.49,0.41-0.93,0.77-1.35,1.12 c-3.95,3.26-5.97,4.93-7.47,9.91H0.86L0.86,60.73z M25.12,42.97c0.22-0.1,0.45-0.2,0.67-0.31c0.03-0.01,0.06-0.03,0.09-0.04 c3.31-1.66,6.24-4.71,8.08-8.91c0.65-1.48,0.94-2.82,1.07-4.16c0.39-4.12,0.03-9.7,0.03-13.97c-3.39,0.52-4.8-1.74-5.42-5.12 c-6.92,6.31-14.97,7.69-24,4.91c0,4.23-0.34,9.55-0.01,13.65c0.1,1.24,0.34,2.49,0.87,3.88C10.41,43.12,18.43,45.84,25.12,42.97 L25.12,42.97z M14.68,45.97c-0.41,0.89-0.92,1.53-1.53,2.31c0.35,0.46,0.74,0.87,1.15,1.23c0.07,0.06,0.15,0.12,0.22,0.18 c1.6,1.23,3.47,1.87,5.34,1.9c1.87,0.03,3.75-0.55,5.36-1.75c0.63-0.47,1.23-1.04,1.76-1.7l0-0.01c-0.5-0.79-0.91-1.44-1.22-2.26 C22.16,47.26,18.28,47.34,14.68,45.97L14.68,45.97z M1.18,41.35L1.18,41.35L1.18,41.35z M120.94,60.73 c-0.18-0.71-0.4-1.35-0.64-1.92c-1.38-3.26-4.83-4.74-8.21-6.2c-0.57-0.25-1.14-0.49-1.74-0.77c-0.08,0.1-0.15,0.19-0.23,0.29 c-0.46,0.57-1.01,1.08-1.61,1.51c-1.68,1.22-3.85,1.92-6.09,2.03c-2.23,0.11-4.54-0.37-6.5-1.49c-0.98-0.56-1.88-1.28-2.64-2.18 c-0.54,0.26-1.1,0.51-1.67,0.77c-3.25,1.48-6.92,3.15-8.26,5.94c-0.3,0.62-0.53,1.29-0.71,2.02H80.7c0.02-0.09,0.04-0.17,0.06-0.25 c0.21-0.92,0.5-1.78,0.88-2.58c1.64-3.41,5.63-5.23,9.17-6.84c0.79-0.36,1.55-0.71,2.23-1.05c0.47-0.61,0.85-1.28,1.15-1.98 c0.25-0.61,0.45-1.25,0.57-1.92c-0.72-0.43-1.4-0.93-2.05-1.5c-2.66-2.36-4.51-4.28-5.71-6.5c-1.21-2.26-1.72-4.76-1.66-8.24 l0.19-10.08c0-0.11,0.02-0.21,0.06-0.31l-2.35-0.74c-0.34-7.43,3.96-11.87,9.29-14.01c1.94-0.78-1.31-5.03,3.15-3.39 c5.96,2.18,19.19,5.15,22.32,8.9c2.54,3.04,2.65,4.69,2.59,8.66c-0.02,1.29-0.22,2.42-0.81,2.84c-0.27,0.19-0.6,0.27-0.98,0.24 v8.62c0,4.78-1.71,8.77-4.33,11.72c-1.48,1.67-3.25,3-5.16,3.96c0.11,0.61,0.27,1.2,0.47,1.76c0.24,0.67,0.55,1.3,0.92,1.91 c0.65,0.3,1.38,0.62,2.12,0.94c3.73,1.6,7.52,3.24,9.2,7.21c0.33,0.78,0.61,1.66,0.84,2.65H120.94L120.94,60.73z M98.3,47.58 c-0.61-0.16-1.2-0.36-1.78-0.6c-0.14,0.61-0.34,1.21-0.57,1.77c-0.3,0.72-0.68,1.4-1.13,2.04c0.5,0.56,1.07,1.03,1.69,1.43 c1.67,1.08,3.67,1.58,5.65,1.53c1.96-0.05,3.88-0.65,5.38-1.78c0.4-0.3,0.77-0.64,1.1-1.02c0.1-0.12,0.19-0.24,0.28-0.37 c-0.35-0.61-0.64-1.25-0.89-1.93c-0.19-0.52-0.34-1.05-0.46-1.6c-1.92,0.69-3.86,1.03-5.77,1C100.61,48.05,99.44,47.89,98.3,47.58 L98.3,47.58z M96.32,44.79c0.62,0.33,1.26,0.6,1.91,0.81l0.03,0.01c1.2,0.37,2.46,0.55,3.72,0.55c2.02,0,4.07-0.46,5.97-1.32 c1.91-0.87,3.67-2.14,5.12-3.77c2.33-2.63,3.85-6.19,3.85-10.47v-8.73h0c-0.02-0.6-0.11-1.15-0.27-1.65 c-0.16-0.48-0.38-0.91-0.69-1.27c-1.16-1.36-2.26-1.3-3.82-1.22c-0.14,0.01-0.28,0.01-0.48,0.02c-6.19,0.27-10.25,0.27-13.54-0.02 c-3.04-0.26-5.42-0.76-8.19-1.5c-0.26,0.61-0.57,1.21-0.92,1.8c-0.45,0.75-0.98,1.46-1.58,2.14l-0.18,9.72 c-0.06,3.14,0.38,5.36,1.44,7.32c1.07,1.99,2.8,3.78,5.3,5.99c0.66,0.58,1.36,1.08,2.1,1.48C96.16,44.7,96.24,44.74,96.32,44.79 L96.32,44.79z M97.84,39.03c-0.44-0.28-0.56-0.87-0.28-1.3c0.28-0.44,0.87-0.56,1.3-0.28c1.07,0.7,2.11,1.08,3.09,1.09 c0.95,0.01,1.89-0.32,2.82-1.04c0.41-0.32,1.01-0.25,1.33,0.17c0.32,0.41,0.25,1.01-0.17,1.33c-1.28,0.99-2.62,1.45-4,1.44 C100.57,40.41,99.21,39.93,97.84,39.03L97.84,39.03z M94.32,27.21c1.13,0,2.04,0.91,2.04,2.04c0,1.13-0.91,2.04-2.04,2.04 c-1.13,0-2.04-0.91-2.04-2.04C92.28,28.13,93.2,27.21,94.32,27.21L94.32,27.21z M109.69,27.21c1.13,0,2.04,0.91,2.04,2.04 c0,1.13-0.91,2.04-2.04,2.04c-1.13,0-2.04-0.91-2.04-2.04C107.66,28.13,108.57,27.21,109.69,27.21L109.69,27.21z"/></g></svg>