<?xml version="1.0" encoding="utf-8"?><svg version="1.1" id="Layer_1" xmlns="http://www.w3.org/2000/svg" xmlns:xlink="http://www.w3.org/1999/xlink" x="0px" y="0px" viewBox="0 0 122.88 121.17" style="enable-background:new 0 0 122.88 121.17" xml:space="preserve"><style type="text/css"><![CDATA[
	.st0{fill-rule:evenodd;clip-rule:evenodd;}
]]></style><g><path class="st0" d="M30.27,48.96C30.27,48.97,30.27,48.97,30.27,48.96L30.27,48.96L30.27,48.96L30.27,48.96z M108.82,3.6v29.87 h4.4v-5.91h7.47c1.21,0,2.2,1,2.2,2.2V63.4c0,1.2-1,2.19-2.19,2.19h-7.47v-3.18h-4.4v54.23c-0.51,4.71-11.81,5.56-13.29,0v-4.43 c-0.4,0.06-0.8,0.09-1.22,0.09H83.82l-3.55,8.86h-9.48l-3.39-8.86H33.06l-3.55,8.86h-9.48l-3.39-8.86h-8.2 c-4.64,0-8.44-3.8-8.44-8.44v-87.2c0-4.64,3.8-8.44,8.44-8.44h85.87l0,0c0.41,0,0.82,0.03,1.22,0.09V3.6 C98.17-0.98,105.92-1.42,108.82,3.6L108.82,3.6z M108.82,38.93v18.03h4.4V38.93H108.82L108.82,38.93z M95.52,105.49v-6.53H6.38 v2.73c0,2.45,1.98,4.43,4.43,4.43h82.42C94.07,106.13,94.85,105.9,95.52,105.49L95.52,105.49z M95.52,94.42V14.88 c-0.67-0.41-1.46-0.65-2.31-0.65H10.81c-1.18,0-2.31,0.46-3.14,1.3c-0.79,0.8-1.29,1.91-1.29,3.13v75.74h10.58 c-0.05-0.04-0.1-0.09-0.14-0.14c-0.64-0.7-1-1.68-1.07-2.93l0-0.06L15.74,69.7l0.02-0.2c0.28-1.36,0.88-2.63,1.62-3.7 c0.72-1.04,1.6-1.92,2.43-2.49l0.68-5.13c0-0.15,0.03-0.31,0.07-0.45l0,0l-0.07-0.05l0.64-4.75l-0.44-0.92l-0.09-0.43l0-2.45 c-0.01-0.81-0.01-1.15,0.54-1.52c0.35-0.24,0.6-0.22,1.02-0.2c0.12,0.01,0.25,0.03,0.48,0.03l5.69,0.01l0.38-0.01 c0.46-0.03,0.72-0.04,1.07,0.26c0.43,0.35,0.43,0.62,0.42,1.23c0.01-0.04,0.01-0.11,0,0.22l-0.01,2.44l-0.16,0.53L29.48,53 l1.62,10.62c0.92,0.59,1.61,1.42,2.18,2.4c0.61,1.07,1.06,2.25,1.48,3.42l0.07,0.34l0,21.52v0.08c-0.11,1.29-0.47,2.33-1.15,3.04 h8.44c-0.27-0.25-0.5-0.56-0.67-0.9c-0.34-0.66-0.49-1.49-0.45-2.49V54.16l0.02-0.12c0.18-0.8,0.43-1.54,0.73-2.23 c0.31-0.69,0.68-1.32,1.1-1.87c0.42-0.54,0.9-1.02,1.44-1.42l0,0c0.54-0.41,1.13-0.75,1.79-1.03h0.01 c0.23-0.09,0.44-0.21,0.61-0.35c0.17-0.14,0.31-0.3,0.43-0.49c0.31-0.53,0.31-1,0.3-1.6v-0.21l0,0V34.31 c-0.15-0.08-0.28-0.19-0.4-0.3c-0.32-0.32-0.53-0.77-0.53-1.26v-2.03c0-0.49,0.21-0.94,0.53-1.26l0.01-0.01 c0.11-0.11,0.23-0.21,0.37-0.28v-1.29c0-0.6,0.25-1.15,0.65-1.55l0,0c0.4-0.4,0.95-0.65,1.56-0.65l0,0h4.66 c0.6,0,1.15,0.25,1.55,0.65l0,0l0,0c0.4,0.4,0.65,0.95,0.65,1.55v1.29c0.14,0.08,0.26,0.18,0.37,0.29l0,0 c0.32,0.32,0.53,0.77,0.53,1.26v2.02c0,0.49-0.2,0.94-0.53,1.26c-0.17,0.17-0.36,0.3-0.58,0.39v7.96h-0.03v2.3l0,0v0.2 c-0.01,0.71-0.01,1.4,0.37,1.97c0.49,0.78,2.85,1.27,4.43,3.27c0.94,1.19,1.57,2.68,1.69,4.63v0.03v36.54v0.01 c-0.02,1.08-0.26,1.96-0.81,2.63c-0.14,0.17-0.3,0.33-0.48,0.47h11.99c-0.04-0.19-0.06-0.35-0.06-0.45c0-0.32,0.26-1.42,0.59-1.42 h3.1v-7.08c-5.25-0.21-8.19-4.93-8.19-10.11v-8.57c0-0.32,0.26-0.59,0.59-0.59h17.9c0.32,0,0.59,0.26,0.59,0.59l0,0l0,0v8.57 c0,5.03-2.74,9.7-7.84,10.08v7.1h3.58c0.33,0,0.59,1.1,0.59,1.42c0,0.1-0.02,0.26-0.07,0.45H95.52L95.52,94.42z M48.29,30.3h7.28 c0.37,0,0.68,0.31,0.68,0.68v1.5c0,0.38-0.31,0.68-0.68,0.68h-7.28c-0.37,0-0.68-0.31-0.68-0.68v-1.51 C47.61,30.6,47.92,30.3,48.29,30.3L48.29,30.3L48.29,30.3z M55.18,41.8v-6.64c0-0.26-0.22-0.48-0.48-0.48h-5.69 c-0.26,0-0.48,0.22-0.48,0.48v6.64H55.18L55.18,41.8L55.18,41.8z M49.72,26.99h4.42c0.6,0,1.09,0.49,1.09,1.09l-0.03,0.85h-6.59 l0.03-0.85C48.63,27.48,49.12,26.99,49.72,26.99L49.72,26.99L49.72,26.99z M49.35,58.93h11.34v25.1H49.35 c-0.81,0-1.48-0.63-1.48-1.41V60.34C47.88,59.57,48.54,58.93,49.35,58.93L49.35,58.93L49.35,58.93L49.35,58.93z M25.33,74.37 c-3.27,0-5.9,2.64-5.9,5.91c0,3.27,2.64,5.9,5.91,5.9c3.27,0,5.9-2.64,5.9-5.91C31.23,77,28.59,74.36,25.33,74.37L25.33,74.37 L25.33,74.37z M25.33,76.63l-1.05,2.57l-2.77,0.22l2.12,1.79l-0.65,2.71l2.36-1.46l2.36,1.46l-0.67-2.7l2.13-1.8l-2.77-0.2 l-1.05-2.57L25.33,76.63L25.33,76.63L25.33,76.63z M27.93,55.59l-5.21,1.06l0.49-3.72l-0.09-0.54l-0.48-0.99l0-1.97h0.08l5.55,0 l-0.01,1.89l-0.6,0.93l-0.16,0.68L27.93,55.59L27.93,55.59L27.93,55.59L27.93,55.59z M32.81,69.73l-15.06-0.01 c0.24-1.03,0.71-2,1.27-2.81c0.68-1,1.49-1.76,2.22-2.16l0.43-0.25l0.06-0.49l0.61-4.62l5.98-1.22l0.94,6.19l0.08,0.49l0.46,0.24 c0.74,0.38,1.33,1.08,1.81,1.91C32.07,67.82,32.46,68.76,32.81,69.73L32.81,69.73L32.81,69.73L32.81,69.73z M17.75,72.38l15.15,0 l0,15.09l-15.15,0L17.75,72.38L17.75,72.38L17.75,72.38z M17.74,90.12l15.15,0l0.01,1.15c-0.08,0.83-0.27,1.45-0.61,1.81 c-0.28,0.3-0.74,0.41-1.4,0.32l-0.14-0.02H19.67c-0.64,0-1.1-0.14-1.39-0.46c-0.31-0.33-0.48-0.87-0.53-1.62l0-1.19L17.74,90.12 L17.74,90.12L17.74,90.12z M22.22,49.36c-0.02,0.01,0,0,0.08-0.06C22.42,49.21,22.31,49.29,22.22,49.36L22.22,49.36L22.22,49.36z"/></g></svg>