<svg width="24" height="24" viewBox="0 0 24 24" fill="none" xmlns="http://www.w3.org/2000/svg">
<path d="M21.1875 16.9219V15.5156H19.7812V14.8125C19.7812 12.3373 17.9445 10.2833 15.5625 9.94106V8.48438H14.1562V9.94106C11.7743 10.2833 9.9375 12.3373 9.9375 14.8125V15.5156H8.53125V16.9219H21.1875ZM11.3438 14.8125C11.3438 12.874 12.9209 11.2969 14.8594 11.2969C16.7979 11.2969 18.375 12.874 18.375 14.8125V15.5156H11.3438V14.8125Z" fill="#9DBA96"/>
<path d="M15.5625 0H0V19.7344H5.71875V24H24V4.21875H15.5625V0ZM5.71875 18.3281H1.40625V1.40625H11.8809L5.71875 4.4873V18.3281ZM14.1562 1.84083V4.21875H9.40036L14.1562 1.84083ZM22.5938 5.625V22.5938H7.125V5.625H22.5938Z" fill="#9DBA96"/>
<path d="M9.9375 19.7344H19.7812V21.1406H9.9375V19.7344Z" fill="#9DBA96"/>
</svg>
