<?xml version="1.0" encoding="utf-8"?><svg version="1.1" id="Layer_1" xmlns="http://www.w3.org/2000/svg" xmlns:xlink="http://www.w3.org/1999/xlink" x="0px" y="0px" viewBox="0 0 122.88 104.48" style="enable-background:new 0 0 122.88 104.48" xml:space="preserve"><style type="text/css">.st0{fill-rule:evenodd;clip-rule:evenodd;}</style><g><path class="st0" d="M78.35,78.21c-18.33,0-6.26,1.44-3.77-18.48c3.73-29.79,32.06-29.79,36.24,0 c2.68,19.17,14.17,18.48-3.77,18.48H99.9c-0.03,4.88-0.79,7.37,4.27,10.11c5.05,2.73,18.71,4.14,18.71,11.07v4.44 c0,0.36-0.29,0.65-0.65,0.65c-40.74,0-81.49,0-122.23,0l0-12.85c5.43-2.42,22.67-6.97,24.01-13.76c0.36-1.82-3.84-7.91-4.95-11.14 c-1.72-2.75-2.78-7.99-0.73-10.95c1.22-1.77,0.7-5.9,0.7-8.15c0-17.8,31.17-17.79,31.17,0c0,1.79-0.36,6.52,0.48,7.82 c2.12,3.27,1.43,8.18-0.51,11.28c-0.91,3.07-4.86,9.46-4.66,11.14c1.43,12.11,16.37,6.11,22.71,15.18 c4.2-1.79,9.78-2.83,13.52-5.07c4.45-2.66,3.69-5.34,3.66-9.77L78.35,78.21L78.35,78.21L78.35,78.21z M52.4,0H41.01 c-1.75,0-3.24,0.62-4.49,1.85c-1.24,1.23-1.85,2.73-1.85,4.49v11.11c0,1.76,0.62,3.26,1.85,4.49c1.23,1.23,2.73,1.85,4.49,1.85 h4.89c-0.36,1.4-0.81,2.73-1.37,3.97c-0.55,1.26-1.48,2.46-2.77,3.61c2.47-0.64,4.67-1.61,6.61-2.88c1.93-1.26,3.61-2.84,4.99-4.7 h4.19c1.75,0,3.24-0.63,4.49-1.85c1.24-1.23,1.85-2.73,1.85-4.49V6.33c0-1.75-0.62-3.24-1.85-4.49C60.82,0.6,59.32,0,57.56,0H52.4 L52.4,0z M85.71,12.76v11.11c0,1.01-0.18,1.96-0.55,2.84c-0.36,0.88-0.89,1.68-1.62,2.39c-0.31,0.31-0.64,0.59-0.98,0.82 c-0.35,0.25-0.71,0.46-1.08,0.64c-0.01,0.01-0.04,0.01-0.06,0.03c-0.48,0.22-0.96,0.38-1.47,0.49c-0.53,0.11-1.08,0.17-1.64,0.17 h-3.49c0.07,0.22,0.14,0.45,0.22,0.67c0.21,0.62,0.46,1.23,0.73,1.83v0.01c0.24,0.56,0.57,1.09,0.98,1.62 c0.42,0.55,0.92,1.08,1.52,1.62c0.43,0.38,0.48,1.03,0.08,1.47c-0.27,0.31-0.67,0.42-1.03,0.32c-1.29-0.34-2.52-0.75-3.66-1.26 c-1.15-0.5-2.24-1.09-3.26-1.76c-1.01-0.66-1.96-1.41-2.84-2.24c-0.74-0.7-1.44-1.47-2.1-2.28h-3.66c-0.69,0-1.36-0.08-1.99-0.25 c-0.63-0.17-1.23-0.43-1.8-0.78c-0.49-0.29-0.64-0.94-0.35-1.43c0.29-0.49,0.94-0.64,1.43-0.35c0.39,0.24,0.81,0.42,1.27,0.55 c0.45,0.13,0.94,0.18,1.44,0.18h4.18c0.32,0,0.63,0.14,0.84,0.42c0.66,0.88,1.38,1.69,2.18,2.43c0.78,0.74,1.64,1.41,2.56,2.01 c0.88,0.57,1.82,1.09,2.81,1.54c-0.2-0.32-0.35-0.64-0.5-0.96c-0.28-0.64-0.55-1.3-0.78-2c-0.22-0.66-0.43-1.34-0.62-2.03 c-0.04-0.11-0.06-0.24-0.06-0.36c0-0.57,0.46-1.05,1.05-1.05h4.86c0.42,0,0.81-0.04,1.19-0.13c0.36-0.08,0.7-0.2,1.02-0.34 c0.01-0.01,0.03-0.01,0.04-0.03c0.27-0.13,0.53-0.28,0.77-0.45c0.25-0.18,0.49-0.38,0.71-0.62c0.52-0.52,0.91-1.09,1.16-1.71 c0.25-0.62,0.38-1.3,0.38-2.04V12.78c0-0.74-0.13-1.43-0.38-2.04c-0.25-0.61-0.64-1.19-1.16-1.71c-0.52-0.52-1.09-0.91-1.71-1.16 c-0.62-0.25-1.3-0.38-2.04-0.38h-7.38c-0.57,0-1.05-0.46-1.05-1.05c0-0.57,0.46-1.05,1.05-1.05h7.38c1.01,0,1.94,0.18,2.82,0.55 c0.88,0.36,1.66,0.89,2.39,1.61c0.71,0.71,1.26,1.51,1.61,2.39c0.36,0.88,0.55,1.82,0.55,2.82H85.71L85.71,12.76z"/></g></svg>