<svg width="24" height="22" viewBox="0 0 24 22" fill="none" xmlns="http://www.w3.org/2000/svg">
<path d="M19.4571 10.7268C21.9168 8.5155 22.1182 4.72894 19.907 2.26922C17.8789 0.0132583 14.4843 -0.369993 12.0042 1.37706C9.30075 -0.530908 5.56245 0.114006 3.65448 2.81746C1.90375 5.29812 2.28545 8.69626 4.54287 10.7267C1.73797 12.2053 -0.012653 15.1203 5.34455e-05 18.291V20.8624C5.34455e-05 21.3358 0.383807 21.7195 0.857209 21.7195H23.1428C23.6162 21.7195 24 21.3358 24 20.8624V18.291C24.0126 15.1203 22.262 12.2053 19.4571 10.7268ZM15.4285 2.00535C17.7921 2.00274 19.7103 3.91669 19.713 6.28028C19.7148 7.96597 18.727 9.49571 17.1899 10.1876C17.1239 10.2176 17.0579 10.245 16.9911 10.2733C16.7795 10.3586 16.5614 10.4265 16.3388 10.4765C16.2959 10.4859 16.2531 10.491 16.2094 10.4996C15.9607 10.5473 15.7083 10.5728 15.4551 10.5759C15.3411 10.5759 15.2262 10.5673 15.1122 10.5571C15.0694 10.5571 15.0265 10.5571 14.9836 10.5485C14.4965 10.4911 14.0226 10.3515 13.5822 10.1353C13.5659 10.1276 13.547 10.1285 13.5308 10.1216C13.445 10.0805 13.3594 10.0445 13.2831 9.99819C13.29 9.9896 13.2942 9.98021 13.3011 9.97162C13.6941 9.46658 14.004 8.90207 14.219 8.29935L14.2456 8.22733C14.3434 7.93945 14.4193 7.64464 14.4728 7.34531C14.4805 7.30162 14.4865 7.25958 14.4933 7.21247C14.5429 6.90777 14.569 6.59975 14.5713 6.29103C14.5689 5.98291 14.5428 5.67545 14.4933 5.3713C14.4865 5.32675 14.4805 5.28557 14.4728 5.23846C14.4193 4.93918 14.3434 4.64432 14.2456 4.35644L14.219 4.28442C14.004 3.68169 13.694 3.11719 13.3011 2.61215C13.2942 2.60356 13.2899 2.59417 13.2831 2.58558C13.9343 2.20569 14.6746 2.0054 15.4285 2.00535ZM4.28573 6.29108C4.27965 3.9303 6.18848 2.01158 8.54926 2.0055C9.65587 2.00264 10.7205 2.42908 11.5191 3.19508C11.5689 3.2431 11.6177 3.29106 11.6657 3.34078C11.8129 3.49502 11.9487 3.65975 12.072 3.83362C12.1097 3.88676 12.144 3.94336 12.1791 3.9982C12.2989 4.18257 12.4041 4.37603 12.4937 4.57677C12.5151 4.62564 12.5314 4.67536 12.5502 4.72417C12.6406 4.94621 12.7117 5.17563 12.7628 5.40987C12.7688 5.43558 12.7705 5.4613 12.7757 5.48786C12.8843 6.02008 12.8843 6.56876 12.7757 7.10098C12.7705 7.12754 12.7688 7.15326 12.7628 7.17897C12.7117 7.41321 12.6406 7.64263 12.5502 7.86467C12.5314 7.91353 12.5151 7.96325 12.4937 8.01207C12.404 8.21251 12.2988 8.40567 12.1791 8.58978C12.144 8.64463 12.1097 8.70123 12.072 8.75437C11.9487 8.92829 11.8129 9.09297 11.6657 9.2472C11.6177 9.29692 11.5688 9.34494 11.5191 9.3929C11.1721 9.72362 10.772 9.99367 10.3354 10.1917C10.266 10.2234 10.1957 10.2526 10.1246 10.2775C9.91798 10.3595 9.70539 10.4254 9.48863 10.4746C9.43464 10.4866 9.37889 10.4934 9.32405 10.5029C9.09132 10.5462 8.85532 10.57 8.61862 10.574H8.52435C8.28765 10.57 8.05165 10.5462 7.81892 10.5029C7.76407 10.4934 7.70833 10.4866 7.65434 10.4746C7.43757 10.4254 7.22493 10.3595 7.01836 10.2775C6.9472 10.2492 6.87693 10.2201 6.80753 10.1917C5.27402 9.49937 4.28769 7.9736 4.28573 6.29108ZM15.4285 20.0053H1.71431V18.291C1.70176 15.3865 3.53178 12.7932 6.27255 11.8316C7.74388 12.4442 9.39888 12.4442 10.8703 11.8316C11.1564 11.9362 11.4353 12.0596 11.7051 12.2011C11.8834 12.2928 12.048 12.3973 12.2194 12.5028C12.3308 12.5722 12.4439 12.6399 12.5511 12.7162C12.7166 12.8336 12.8726 12.9613 13.026 13.0925C13.1246 13.1782 13.2223 13.2639 13.3148 13.3496C13.4562 13.4833 13.5891 13.6247 13.7168 13.7696C13.8085 13.8742 13.8977 13.9805 13.9825 14.0902C14.0948 14.2342 14.202 14.3816 14.3014 14.5333C14.3871 14.6619 14.4634 14.7956 14.5388 14.9293C14.6245 15.0767 14.7034 15.2242 14.7753 15.3776C14.8474 15.5311 14.9108 15.699 14.9725 15.8628C15.0265 16.0051 15.0839 16.1465 15.1285 16.2913C15.1885 16.4902 15.2305 16.6959 15.2725 16.9016C15.2982 17.0233 15.3316 17.1425 15.3505 17.2659C15.4012 17.6052 15.4273 17.9478 15.4284 18.291V20.0053H15.4285ZM22.2856 20.0053H17.1428V18.291C17.1428 18.0227 17.1274 17.757 17.1034 17.4939C17.0965 17.4167 17.0846 17.3404 17.076 17.2633C17.0528 17.0739 17.0262 16.8862 16.9902 16.7001C16.9748 16.6207 16.9585 16.541 16.9414 16.461C16.9002 16.2701 16.8525 16.081 16.7982 15.8936C16.7802 15.8318 16.7639 15.7693 16.7451 15.7084C16.5051 14.9412 16.1573 14.2119 15.7123 13.5425L15.6788 13.4936C15.5314 13.2747 15.374 13.063 15.2065 12.8585L15.2005 12.8508C15.0291 12.6382 14.8431 12.4316 14.6477 12.2362C14.6588 12.2362 14.6708 12.2362 14.6828 12.2362C14.9247 12.268 15.1683 12.2851 15.4123 12.2876H15.4594C15.6852 12.2856 15.9107 12.271 16.1349 12.2439C16.2051 12.2353 16.2746 12.2225 16.3449 12.2113C16.5272 12.1833 16.7072 12.147 16.8849 12.1025C16.9354 12.0896 16.9869 12.0776 17.0383 12.0631C17.2715 11.9996 17.5005 11.9217 17.724 11.8299C20.4668 12.7905 22.2984 15.385 22.2857 18.2911V20.0053H22.2856Z" fill="#9DBA96"/>
</svg>
