<svg width="24" height="24" viewBox="0 0 24 24" fill="none" xmlns="http://www.w3.org/2000/svg">
<path d="M4.45309 4.92713C4.56362 4.92713 4.67584 4.90102 4.78041 4.84603L5.86388 4.27608C6.20785 4.09514 6.33985 3.66994 6.15872 3.32635C5.97769 2.98275 5.55193 2.85089 5.20805 3.03178L4.12459 3.60174C3.78062 3.78267 3.64862 4.20788 3.8297 4.55147C3.9557 4.79058 4.20015 4.92713 4.45309 4.92713Z" fill="#9DBA96"/>
<path d="M23.9954 23.2134L23.0959 15.6969L23.9225 9.55331C23.9436 9.39666 23.9106 9.24122 23.8347 9.10927C23.943 8.82263 24.0001 8.51648 24.0001 8.20355C24.0001 7.52653 23.7292 6.88669 23.271 6.41503C23.5429 6.00141 23.6939 5.51241 23.6939 5.00719C23.6939 3.79087 22.842 2.76961 21.7031 2.50734C21.6722 1.11956 20.5325 0 19.1361 0C17.7396 0 16.5999 1.11956 16.569 2.50739C15.43 2.76966 14.5783 3.79092 14.5783 5.00723C14.5783 5.20144 14.6014 5.39498 14.6449 5.58361C14.5318 5.61009 14.4201 5.64253 14.3104 5.68045C14.2231 5.59734 14.1315 5.51869 14.0358 5.44523C14.0898 4.94827 14.1797 4.3778 14.2605 4.03748C14.3931 3.47902 14.265 2.90072 13.9091 2.45095C13.554 2.00227 13.0219 1.74492 12.4492 1.74492C11.6381 1.74492 10.9258 2.26303 10.6761 3.03642L9.89606 5.47992C9.81623 5.54334 9.7394 5.61023 9.66567 5.68045C9.40772 5.59092 9.14119 5.53331 8.86856 5.5088V3.7387C8.86856 1.67719 7.18969 0 5.12606 0C3.06244 0 1.38361 1.67719 1.38361 3.7387V9.01458L1.1063 8.85262C0.874077 8.71697 0.584718 8.72545 0.360843 8.87447C0.136968 9.02348 0.0176709 9.28692 0.0535302 9.55327L0.880265 15.698L0.0050615 23.2156C-0.0181416 23.4149 0.0449521 23.6146 0.178546 23.7645C0.312046 23.9143 0.503296 24 0.704155 24H23.2965C23.4977 24 23.6894 23.914 23.8229 23.7636C23.9565 23.6133 24.0193 23.413 23.9954 23.2134ZM17.146 3.84834C17.1904 3.84834 17.2362 3.85125 17.286 3.8572C17.5253 3.8858 17.7634 3.78975 17.9157 3.60258C18.068 3.41541 18.1136 3.16331 18.0366 2.93475C17.9964 2.81531 17.976 2.69095 17.976 2.56514C17.976 1.92609 18.4964 1.40625 19.1361 1.40625C19.7757 1.40625 20.296 1.92609 20.296 2.56514C20.296 2.69095 20.2756 2.81531 20.2354 2.93475C20.1584 3.16336 20.204 3.41541 20.3563 3.60258C20.5086 3.78975 20.7464 3.88598 20.986 3.85725C21.0359 3.8513 21.0817 3.84839 21.1261 3.84839C21.7658 3.84839 22.2862 4.36823 22.2862 5.00728C22.2862 5.37722 22.1065 5.72817 21.8055 5.94619C21.6036 6.09244 21.4942 6.3345 21.518 6.58252C21.5418 6.83058 21.6952 7.04747 21.9213 7.15275C22.3289 7.34259 22.5923 7.75509 22.5923 8.20364C22.5923 8.49375 22.4844 8.77125 22.2885 8.985C22.207 9.07392 22.1528 9.17817 22.1253 9.28744L21.6195 9.5828L20.3695 8.85272C20.15 8.72461 19.8785 8.72461 19.659 8.85272L18.7833 9.36417V8.85998C18.7833 7.24964 17.645 5.90048 16.1302 5.5717C16.1256 5.56172 16.1215 5.55155 16.1164 5.5417C16.0297 5.37605 15.9859 5.19623 15.9859 5.00733C15.986 4.36819 16.5064 3.84834 17.146 3.84834ZM8.56139 6.90066C8.65514 6.90066 8.74781 6.90745 8.83917 6.92034C8.69747 7.29188 8.61914 7.69434 8.61914 8.11495V9.49022L7.52737 8.85262C7.3079 8.72452 7.03636 8.72452 6.81694 8.85262L6.60019 8.97919V8.85984C6.60019 7.77956 7.47998 6.90066 8.56139 6.90066ZM10.0268 8.115C10.0268 7.03467 10.9066 6.15577 11.988 6.15577C12.5774 6.15577 13.1065 6.41723 13.4663 6.82973C13.4748 6.84834 13.4837 6.86686 13.494 6.885C13.5345 6.95691 13.5864 7.01822 13.6454 7.0695C13.8375 7.37231 13.9492 7.73077 13.9492 8.115V8.85309L13.9485 8.85267C13.729 8.72456 13.4574 8.72456 13.238 8.85267L11.988 9.58275L10.7379 8.85267C10.5185 8.72456 10.2469 8.72456 10.0275 8.85267L10.0268 8.85309V8.115ZM15.1371 6.921C15.2287 6.90797 15.3214 6.9007 15.4145 6.9007C16.4959 6.9007 17.3757 7.77961 17.3757 8.85994V8.97928L17.159 8.85272C16.9395 8.72461 16.668 8.72461 16.4485 8.85272L15.3568 9.49031V8.115C15.3569 7.69462 15.2786 7.29234 15.1371 6.921ZM12.0165 3.46589C12.0773 3.27764 12.2512 3.15117 12.4492 3.15117C12.6402 3.15117 12.754 3.25884 12.8048 3.32306C12.8561 3.38789 12.9355 3.52472 12.8908 3.71292C12.8217 4.00416 12.7507 4.41052 12.6939 4.82442C12.4662 4.77572 12.2302 4.74947 11.988 4.74947C11.8565 4.74947 11.727 4.75786 11.5994 4.77258L12.0165 3.46589ZM5.12611 1.40625C6.41353 1.40625 7.46091 2.45259 7.46091 3.7387V5.6798C6.99989 5.8395 6.58434 6.09637 6.2384 6.42605C6.23287 6.32864 6.20747 6.23086 6.159 6.13889C5.97797 5.7953 5.5522 5.66344 5.20833 5.84433L4.12486 6.41428C3.78089 6.59522 3.64889 7.02042 3.82997 7.36402C3.95597 7.60313 4.20042 7.73967 4.45336 7.73967C4.56389 7.73967 4.67611 7.71356 4.78069 7.65858L5.62406 7.21495C5.34984 7.7017 5.19262 8.2627 5.19262 8.85994V9.36413L4.31691 8.85272C4.09739 8.72461 3.82584 8.72461 3.60647 8.85272L2.79126 9.32873V3.7387C2.79126 2.45259 3.83869 1.40625 5.12611 1.40625ZM1.49461 22.5938L2.28872 15.773C2.29551 15.7148 2.29495 15.6561 2.28717 15.5981L1.64076 10.7937L2.00119 11.0042C2.22066 11.1323 2.4922 11.1323 2.71162 11.0042L3.96164 10.2741L5.2117 11.0042C5.43117 11.1323 5.70272 11.1323 5.92214 11.0042L7.17215 10.2741L8.42222 11.0042C8.64169 11.1323 8.91323 11.1323 9.13266 11.0042L10.3827 10.2741L11.6327 11.0042C11.8522 11.1323 12.1237 11.1323 12.3432 11.0042L13.5932 10.2741L14.8432 11.0042C15.0627 11.1323 15.3343 11.1323 15.5537 11.0042L16.8037 10.2741L18.0538 11.0042C18.2732 11.1323 18.5448 11.1323 18.7642 11.0042L20.0142 10.2741L21.2643 11.0042C21.4837 11.1323 21.7553 11.1323 21.9747 11.0042L22.3351 10.7937L21.6887 15.5981C21.6808 15.6569 21.6804 15.7164 21.6875 15.7752L22.5035 22.5938H1.49461Z" fill="#9DBA96"/>
<path d="M15.6886 13.5781H8.28684C7.8981 13.5781 7.58301 13.8929 7.58301 14.2813V17.1021C7.58301 17.4905 7.89815 17.8053 8.28684 17.8053H15.6886C16.0773 17.8053 16.3924 17.4905 16.3924 17.1021V14.2813C16.3924 13.8929 16.0773 13.5781 15.6886 13.5781ZM14.9847 16.399H8.99066V14.9844H14.9847V16.399Z" fill="#9DBA96"/>
</svg>
