<svg width="24" height="24" viewBox="0 0 24 24" fill="none" xmlns="http://www.w3.org/2000/svg">
<path d="M24.0001 18.1875C24.0001 15.429 22.0778 13.1209 19.5001 12.5256C19.078 12.4283 18.6393 12.375 18.1876 12.375C18.0614 12.375 17.9367 12.3805 17.8126 12.3883C14.9958 12.5679 12.7253 14.7527 12.413 17.5313C12.3888 17.7467 12.3751 17.9655 12.3751 18.1875C12.3751 18.6056 12.4203 19.0131 12.5041 19.4063C13.0643 22.0311 15.3955 24 18.1876 24C21.3978 24 24.0001 21.3977 24.0001 18.1875ZM18.1876 22.0313C16.0647 22.0313 14.3438 20.3104 14.3438 18.1875C14.3438 16.0646 16.0647 14.3437 18.1876 14.3437C20.3104 14.3437 22.0313 16.0646 22.0313 18.1875C22.0313 20.3104 20.3104 22.0313 18.1876 22.0313Z" fill="#9DBA96"/>
<path d="M18.9375 15.5625H17.6251V17.625H15.5625V18.9375H18.9375V17.625V15.5625Z" fill="#9DBA96"/>
<path d="M4.31252 0C3.95063 0 3.65628 0.294392 3.65628 0.656235V2.15624V3.75C3.65628 4.11188 3.95063 4.40624 4.31252 4.40624H4.87503C5.23691 4.40624 5.53126 4.11184 5.53126 3.75V2.15624V0.656235C5.53126 0.294392 5.23691 0 4.87499 0H4.31252Z" fill="#9DBA96"/>
<path d="M14.6251 0C14.2632 0 13.9688 0.294392 13.9688 0.656235V2.15624V3.75C13.9688 4.11188 14.2632 4.40624 14.6251 4.40624H15.1876C15.5495 4.40624 15.8438 4.11184 15.8438 3.75V2.15624V0.656235C15.8438 0.294392 15.5494 0 15.1875 0H14.6251Z" fill="#9DBA96"/>
<path d="M1.5 19.4062H10.7813C10.6898 18.9513 10.6412 18.4813 10.6412 18C10.6412 17.8423 10.6481 17.6863 10.6582 17.5313H2.81251C2.19114 17.5313 1.68749 17.0276 1.68749 16.4063V7.40625H17.8125V10.885C17.9366 10.8786 18.0617 10.875 18.1875 10.875C18.636 10.875 19.0742 10.9185 19.5 10.9982V3.65625C19.5 2.82786 18.8284 2.15625 18 2.15625H16.7813V3.75001C16.7813 4.62884 16.0664 5.34378 15.1875 5.34378H14.625C13.7462 5.34378 13.0312 4.62884 13.0312 3.75001V2.15625H6.46875V3.75001C6.46875 4.62884 5.7538 5.34378 4.87498 5.34378H4.31247C3.43365 5.34378 2.71871 4.62884 2.71871 3.75001V2.15625H1.5C0.671608 2.15625 0 2.8279 0 3.65625V17.9063C0 18.7346 0.671608 19.4062 1.5 19.4062Z" fill="#9DBA96"/>
<path d="M5.28515 11.7073C6.10717 11.7073 6.77354 11.0409 6.77354 10.2189C6.77354 9.39685 6.10717 8.73047 5.28515 8.73047C4.46314 8.73047 3.79676 9.39685 3.79676 10.2189C3.79676 11.0409 4.46314 11.7073 5.28515 11.7073Z" fill="#9DBA96"/>
<path d="M9.75006 11.7073C10.5721 11.7073 11.2384 11.0409 11.2384 10.2189C11.2384 9.39685 10.5721 8.73047 9.75006 8.73047C8.92804 8.73047 8.26167 9.39685 8.26167 10.2189C8.26167 11.0409 8.92804 11.7073 9.75006 11.7073Z" fill="#9DBA96"/>
<path d="M14.2147 11.7073C15.0368 11.7073 15.7031 11.0409 15.7031 10.2189C15.7031 9.39685 15.0368 8.73047 14.2147 8.73047C13.3927 8.73047 12.7263 9.39685 12.7263 10.2189C12.7263 11.0409 13.3927 11.7073 14.2147 11.7073Z" fill="#9DBA96"/>
<path d="M9.75003 16.2072C10.572 16.2072 11.2384 15.5408 11.2384 14.7188C11.2384 13.8968 10.572 13.2305 9.75003 13.2305C8.92803 13.2305 8.26167 13.8968 8.26167 14.7188C8.26167 15.5408 8.92803 16.2072 9.75003 16.2072Z" fill="#9DBA96"/>
<path d="M5.28532 16.2072C6.10731 16.2072 6.77367 15.5408 6.77367 14.7188C6.77367 13.8968 6.10731 13.2305 5.28532 13.2305C4.46333 13.2305 3.79697 13.8968 3.79697 14.7188C3.79697 15.5408 4.46333 16.2072 5.28532 16.2072Z" fill="#9DBA96"/>
</svg>
